<svg width="24" height="24" viewBox="0 0 24 24" fill="none" xmlns="http://www.w3.org/2000/svg">
<path fill-rule="evenodd" clip-rule="evenodd" d="M8.60452 3.19724C7.45076 2.265 6.16216 2.23667 5.02496 2.25261C4.98863 2.25312 4.95258 2.25357 4.91682 2.25401C4.44018 2.25993 4.01466 2.26522 3.64953 2.40682C3.07986 2.62774 2.62745 3.08016 2.40652 3.64983C2.26492 4.01496 2.25963 4.44049 2.25371 4.91712C2.25327 4.95288 2.25282 4.98893 2.25231 5.02526C2.23637 6.16246 2.2647 7.45106 3.19694 8.60482C3.54529 9.03595 4.00205 9.37065 4.36583 9.63722C4.40949 9.66922 4.45182 9.70023 4.49246 9.73032C4.91168 10.0406 5.19833 10.281 5.37372 10.5707C5.58318 10.9167 5.51756 11.2677 5.32831 12.0433L4.04846 17.2886C3.90219 17.8881 3.86626 18.4548 4.01958 19.0078C4.17321 19.5619 4.49418 20.0204 4.91672 20.443C5.15964 20.6859 5.55539 20.9841 6.07293 20.9254C6.58972 20.8668 6.91553 20.4878 7.11004 20.1779L10.5268 14.7339L11.7151 15.6784C12.4418 16.2561 12.5983 16.4038 12.6819 16.5818C12.8089 16.8522 12.8538 17.2501 12.8388 17.7852C12.8317 18.0392 12.8127 18.2978 12.7928 18.5672L12.7918 18.5812C12.7722 18.8474 12.7514 19.1306 12.7477 19.3943C12.7417 19.8268 12.9082 20.3507 13.1514 20.7654C13.377 21.1501 13.8311 21.7095 14.5452 21.7484C15.1248 21.7799 15.4741 21.4159 15.6444 21.1546C15.7645 20.9704 15.8659 20.7197 15.9114 20.6071C15.9204 20.5848 15.9272 20.568 15.9316 20.5581L17.1641 17.7567C17.2411 17.5814 17.2854 17.4829 17.3228 17.4124C17.3402 17.3796 17.351 17.3631 17.3559 17.3562C17.3628 17.3513 17.3793 17.3405 17.4121 17.3231C17.4826 17.2857 17.5811 17.2414 17.7564 17.1644L20.5578 15.9319C20.5677 15.9275 20.5845 15.9207 20.6068 15.9117C20.7194 15.8662 20.9701 15.7648 21.1543 15.6447C21.4156 15.4744 21.7796 15.1251 21.7481 14.5455C21.7092 13.8314 21.1498 13.3773 20.7651 13.1517C20.3504 12.9085 19.8265 12.742 19.394 12.748C19.1302 12.7517 18.8471 12.7725 18.5809 12.7921L18.5668 12.7931C18.2975 12.813 18.0389 12.832 17.7849 12.8391C17.2498 12.8541 16.8519 12.8092 16.5815 12.6822C16.4035 12.5986 16.2558 12.4421 15.6781 11.7154L14.7336 10.5271L20.1776 7.11034C20.4875 6.91583 20.8665 6.59002 20.9251 6.07323C20.9838 5.55569 20.6856 5.15993 20.4427 4.91702C20.0201 4.49448 19.5616 4.17351 19.0075 4.01988C18.4545 3.86656 17.8878 3.90249 17.2883 4.04876L12.043 5.32861C11.2674 5.51786 10.9164 5.58348 10.5704 5.37402C10.2807 5.19863 10.0403 4.91198 9.73002 4.49276C9.69993 4.45212 9.66891 4.40979 9.63692 4.36612C9.37035 4.00235 9.03565 3.54559 8.60452 3.19724ZM17.3518 17.3593L17.3531 17.3582L17.3518 17.3593ZM5.04599 3.75246C6.17616 3.73662 6.96277 3.79916 7.6618 4.36397C7.93211 4.58238 8.14844 4.87567 8.4362 5.26579C8.46485 5.30464 8.49421 5.34444 8.5244 5.38523C8.82819 5.79561 9.2222 6.31129 9.79355 6.65719C10.704 7.20838 11.6512 6.9721 12.2813 6.81492C12.3217 6.80483 12.3609 6.79506 12.3986 6.78585L17.6439 5.506C18.0897 5.39722 18.3806 5.40266 18.6067 5.46535C18.8101 5.52174 19.0273 5.6428 19.2949 5.89334L13.2261 9.70227C13.0453 9.81571 12.9215 10.0008 12.8855 10.2111C12.8495 10.4215 12.9049 10.6372 13.0377 10.8042L14.5039 12.6488C14.5322 12.6844 14.5602 12.7197 14.5879 12.7546C15.0349 13.3186 15.4067 13.7876 15.9437 14.0399C16.5494 14.3244 17.2474 14.3547 17.8268 14.3385C18.1156 14.3305 18.4041 14.3092 18.664 14.29L18.6912 14.288C18.9663 14.2678 19.2039 14.2509 19.4151 14.2479C19.447 14.2474 19.5309 14.2558 19.6543 14.2929C19.7722 14.3283 19.8965 14.3812 20.0062 14.4456C20.038 14.4642 20.0666 14.4827 20.0923 14.5007L20.0877 14.5026L20.0861 14.5032C20.0472 14.5192 19.9997 14.5387 19.9537 14.5589L17.1523 15.7914C17.1329 15.7999 17.1132 15.8085 17.0934 15.8172C16.8231 15.9354 16.5239 16.0663 16.2949 16.2952C16.066 16.5242 15.9351 16.8234 15.8169 17.0937C15.8082 17.1135 15.7996 17.1332 15.7911 17.1526L14.5586 19.954C14.5384 20 14.5189 20.0475 14.503 20.0864L14.5023 20.088L14.5004 20.0926C14.4824 20.0669 14.4639 20.0383 14.4453 20.0065C14.3809 19.8968 14.328 19.7725 14.2926 19.6546C14.2555 19.5312 14.2471 19.4473 14.2476 19.4154C14.2506 19.2042 14.2675 18.9666 14.2877 18.6915L14.2897 18.6643C14.3089 18.4044 14.3302 18.1159 14.3382 17.8271C14.3544 17.2477 14.3241 16.5497 14.0396 15.944C13.7873 15.407 13.3183 15.0352 12.7543 14.5882C12.7194 14.5605 12.6841 14.5325 12.6485 14.5042L10.8039 13.038C10.6369 12.9052 10.4212 12.8498 10.2108 12.8858C10.0005 12.9218 9.81541 13.0456 9.70197 13.2264L5.89304 19.2952C5.6425 19.0276 5.52144 18.8104 5.46505 18.607C5.40236 18.3809 5.39692 18.09 5.5057 17.6442L6.78555 12.3989C6.79477 12.3612 6.80453 12.322 6.81462 12.2816C6.9718 11.6515 7.20808 10.7043 6.65689 9.79385C6.31099 9.2225 5.79531 8.82849 5.38493 8.5247C5.34414 8.49451 5.30433 8.46514 5.26548 8.43649C4.87537 8.14874 4.58208 7.9324 4.36367 7.6621C3.79885 6.96307 3.73632 6.17646 3.75216 5.04629C3.7613 4.39412 3.77484 4.27007 3.80504 4.19219C3.87355 4.01552 4.01522 3.87385 4.19189 3.80534C4.26977 3.77513 4.39382 3.7616 5.04599 3.75246ZM14.6581 20.2566L14.6567 20.256L14.6581 20.2566ZM20.2557 14.657L20.2563 14.6584L20.2557 14.657Z" fill="white"/>
</svg>
