<svg width="17" height="24" viewBox="0 0 17 24" fill="none" xmlns="http://www.w3.org/2000/svg">
<path d="M2.42857 24V22.8C1.76071 22.8 1.18899 22.565 0.713393 22.095C0.237798 21.625 0 21.06 0 20.4V7.2C0 6.54 0.237798 5.975 0.713393 5.505C1.18899 5.035 1.76071 4.8 2.42857 4.8H4.85714V1.2C4.85714 0.86 4.97351 0.575 5.20625 0.345C5.43899 0.115 5.72738 0 6.07143 0H10.9286C11.2726 0 11.561 0.115 11.7937 0.345C12.0265 0.575 12.1429 0.86 12.1429 1.2V4.8H14.5714C15.2393 4.8 15.811 5.035 16.2866 5.505C16.7622 5.975 17 6.54 17 7.2V20.4C17 21.06 16.7622 21.625 16.2866 22.095C15.811 22.565 15.2393 22.8 14.5714 22.8V24H12.1429V22.8H4.85714V24H2.42857ZM7.28571 4.8H9.71429V2.4H7.28571V4.8ZM8.5 12C9.57262 12 10.6199 11.865 11.642 11.595C12.664 11.325 13.6405 10.92 14.5714 10.38V7.2H2.42857V10.38C3.35952 10.92 4.33601 11.325 5.35804 11.595C6.38006 11.865 7.42738 12 8.5 12ZM7.28571 15.6V14.34C6.43571 14.24 5.60595 14.09 4.79643 13.89C3.9869 13.69 3.19762 13.42 2.42857 13.08V20.4H14.5714V13.08C13.8024 13.42 13.0131 13.69 12.2036 13.89C11.394 14.09 10.5643 14.24 9.71429 14.34V15.6H7.28571Z" fill="white"/>
</svg>
