<svg width="20" height="22" viewBox="0 0 20 22" fill="none" xmlns="http://www.w3.org/2000/svg">
<g opacity="0.4">
<path d="M4.83848 3.51364L3.83847 4.29453C2.32181 5.47887 1.56348 6.07105 1.15674 6.90601C0.75 7.74097 0.75 8.70551 0.75 10.6346V12.7267C0.75 16.513 0.75 18.4062 1.92157 19.5825C2.86471 20.5294 4.27058 20.714 6.75039 20.75L6.75192 16.7546C6.75236 15.8236 6.75258 15.3581 6.90462 14.9909C7.10774 14.5003 7.49746 14.1106 7.98794 13.9076C8.35508 13.7557 8.82038 13.7557 9.75096 13.7557C10.6819 13.7557 11.1474 13.7557 11.5147 13.9077C12.0053 14.1108 12.395 14.5007 12.598 14.9915C12.75 15.3589 12.75 15.8246 12.75 16.756V20.75C15.2296 20.714 16.6353 20.5293 17.5784 19.5825C18.75 18.4062 18.75 16.513 18.75 12.7267V10.6346C18.75 8.70551 18.75 7.74097 18.3433 6.90601C17.9365 6.07105 17.1782 5.47888 15.6615 4.29453L14.6615 3.51364C12.3021 1.67121 11.1224 0.75 9.75 0.75C8.37757 0.75 7.19787 1.67121 4.83848 3.51364Z" fill="#335289"/>
</g>
<path fill-rule="evenodd" clip-rule="evenodd" d="M9.75004 0C10.6237 0 11.3979 0.299534 12.2237 0.798828C13.0234 1.28243 13.9376 1.99595 15.085 2.8916L16.1231 3.70215C16.1721 3.74039 16.2208 3.77813 16.2686 3.81543C17.6444 4.88861 18.5339 5.58271 19.0176 6.5752C19.5009 7.5672 19.5006 8.6967 19.5 10.4453V12.7773C19.5001 14.6219 19.4998 16.0827 19.3467 17.2256C19.1892 18.4014 18.8573 19.353 18.1094 20.1035C17.3612 20.8543 16.4121 21.1884 15.2393 21.3467C14.0999 21.5004 12.6442 21.5 10.8067 21.5H8.6934C6.8559 21.5 5.40013 21.5004 4.26078 21.3467C3.0879 21.1884 2.13891 20.8544 1.39066 20.1035C0.642774 19.353 0.310882 18.4014 0.153359 17.2256C0.000269289 16.0827 2.25653e-05 14.6219 3.82404e-05 12.7773V10.4453C-0.000532339 8.69674 -0.000824553 7.56719 0.48246 6.5752C0.966136 5.58273 1.8557 4.88857 3.23148 3.81543C3.27927 3.77816 3.32803 3.74036 3.37699 3.70215L4.41508 2.8916C5.56255 1.99593 6.47662 1.28244 7.27641 0.798828C8.10217 0.299507 8.87637 1.78695e-05 9.75004 0ZM9.75101 14.5C9.27547 14.5 8.95615 14.5007 8.70902 14.5176C8.46876 14.534 8.3515 14.5629 8.27445 14.5947C7.96801 14.7215 7.72465 14.9651 7.59769 15.2715C7.56578 15.3485 7.53607 15.4657 7.51957 15.7061C7.50261 15.9532 7.50222 16.2725 7.50199 16.748L7.50004 19.998C7.88842 20 8.30412 20 8.75004 20H10.75C11.1959 20 11.6117 20 12 19.998V16.749C12 16.2734 11.9993 15.9542 11.9825 15.707C11.9661 15.467 11.9371 15.3496 11.9053 15.2725C11.7784 14.9658 11.5342 14.7216 11.2276 14.5947C11.1505 14.5629 11.0331 14.5339 10.793 14.5176C10.5458 14.5007 10.2266 14.5 9.75101 14.5ZM9.75004 1.5C9.25141 1.50002 8.74958 1.66073 8.05277 2.08203C7.33855 2.51391 6.49393 3.17148 5.29984 4.10352L4.29984 4.88379C2.72577 6.11243 2.14408 6.58951 1.83109 7.23145C1.51797 7.87395 1.50004 8.62866 1.50004 10.6299V12.7217C1.50004 14.6349 1.50151 15.9947 1.63969 17.0264C1.77506 18.0368 2.02948 18.6197 2.45316 19.0449C2.87642 19.4696 3.45571 19.7237 4.46098 19.8594C4.90631 19.9195 5.41348 19.9521 6.00004 19.9717L6.00199 16.7217C6.0022 16.278 6.00261 15.9076 6.02348 15.6035C6.04521 15.2868 6.09183 14.9873 6.21195 14.6973C6.49126 14.0232 7.027 13.4879 7.70121 13.209C7.99128 13.089 8.29078 13.0421 8.60746 13.0205C8.91158 12.9998 9.28198 13 9.72562 13H9.77641C10.2204 13 10.5913 12.9998 10.8955 13.0205C11.2122 13.0421 11.5117 13.089 11.8018 13.209C12.4761 13.4881 13.0119 14.0239 13.2911 14.6982C13.4111 14.9883 13.4579 15.2878 13.4795 15.6045C13.5003 15.9088 13.5 16.2797 13.5 16.7236V19.9717C14.0867 19.9521 14.5937 19.9195 15.0391 19.8594C16.0444 19.7237 16.6236 19.4696 17.0469 19.0449C17.4706 18.6197 17.725 18.0368 17.8604 17.0264C17.9986 15.9947 18 14.6349 18 12.7217V10.6299C18 8.62866 17.9821 7.87395 17.669 7.23145C17.356 6.58954 16.7743 6.11239 15.2002 4.88379L14.2002 4.10352C13.0062 3.17149 12.1615 2.5139 11.4473 2.08203C10.7505 1.66076 10.2487 1.5 9.75004 1.5Z" fill="#335289"/>
</svg>
