<svg width="29" height="20" viewBox="0 0 29 20" fill="none" xmlns="http://www.w3.org/2000/svg">
<path d="M0 20V0H2.63636V13.3333H13.1818V2.66667H23.7273C25.1773 2.66667 26.4186 3.18889 27.4511 4.23333C28.4837 5.27778 29 6.53333 29 8V20H26.3636V16H2.63636V20H0ZM7.90909 12C6.81061 12 5.87689 11.6111 5.10795 10.8333C4.33902 10.0556 3.95455 9.11111 3.95455 8C3.95455 6.88889 4.33902 5.94444 5.10795 5.16667C5.87689 4.38889 6.81061 4 7.90909 4C9.00758 4 9.94129 4.38889 10.7102 5.16667C11.4792 5.94444 11.8636 6.88889 11.8636 8C11.8636 9.11111 11.4792 10.0556 10.7102 10.8333C9.94129 11.6111 9.00758 12 7.90909 12Z" fill="white"/>
</svg>
