<svg width="24" height="24" viewBox="0 0 24 24" fill="none" xmlns="http://www.w3.org/2000/svg">
<path d="M17.5 11.2506C19.5546 11.2506 21.5205 12.4637 22.3467 14.3951C23.1187 16.2 22.6911 17.7497 21.8408 19.0377C21.1493 20.0851 20.1377 21.0169 19.2656 21.8199C19.1124 21.961 18.9634 22.098 18.8213 22.2311C18.4631 22.5664 17.9887 22.7506 17.5 22.7506C17.0113 22.7506 16.5369 22.5664 16.1787 22.2311L16.1777 22.2301C16.0278 22.0889 15.8695 21.9427 15.707 21.7926C14.8436 20.9946 13.8456 20.0712 13.1611 19.0367C12.3098 17.7499 11.8804 16.2022 12.6533 14.3951C13.4795 12.4637 15.4454 11.2506 17.5 11.2506ZM17.5 12.7506C16.0122 12.7506 14.6093 13.6358 14.0322 14.985C13.5077 16.2114 13.7611 17.2256 14.4121 18.2096C14.9871 19.0785 15.8244 19.8551 16.6895 20.6568C16.8607 20.8155 17.0335 20.9747 17.2051 21.1363C17.2805 21.2067 17.3859 21.2506 17.5 21.2506C17.6144 21.2506 17.7204 21.207 17.7959 21.1363C17.9566 20.9858 18.1178 20.8363 18.2783 20.6881C19.1558 19.8778 20.0076 19.091 20.5889 18.2105C21.2393 17.2252 21.4917 16.2098 20.9678 14.985C20.3907 13.6358 18.9878 12.7506 17.5 12.7506ZM7.98828 1.25156C8.49476 1.23509 8.95906 1.35034 9.4541 1.54257C9.92734 1.72637 10.4758 1.99992 11.1445 2.33457L14.5068 4.01816C14.7443 4.13698 14.8895 4.20636 14.9902 4.25058C14.9935 4.25054 14.9967 4.25058 15 4.25058C15.1285 4.25058 15.2478 4.28545 15.3535 4.34238C15.4629 4.34963 15.6273 4.35312 15.9209 4.35312H18.0527C18.9499 4.35309 19.7008 4.35276 20.2969 4.43515C20.9286 4.52252 21.4976 4.71564 21.9521 5.1832C22.4036 5.64772 22.5873 6.22345 22.6709 6.86289C22.7505 7.47187 22.75 8.24029 22.75 9.1666V10.0006C22.7498 10.4146 22.4141 10.7506 22 10.7506C21.5859 10.7506 21.2502 10.4146 21.25 10.0006V9.21738C21.25 8.22711 21.248 7.55747 21.1826 7.05722C21.1198 6.57661 21.0101 6.36605 20.876 6.22812C20.7447 6.09331 20.5488 5.98469 20.0918 5.92148C19.6105 5.85491 18.9646 5.85312 18 5.85312H15.8594C15.8223 5.85314 15.7858 5.85121 15.75 5.85117V9.50058C15.7498 9.91462 15.4141 10.2506 15 10.2506C14.5859 10.2506 14.2502 9.91462 14.25 9.50058V5.55918C14.1373 5.50639 14.0183 5.45079 13.8916 5.3873C13.8732 5.37808 13.8547 5.36839 13.8359 5.35898L10.5039 3.69199C9.79625 3.33786 9.31111 3.09536 8.91113 2.94003C8.85496 2.91822 8.80094 2.90003 8.75 2.88242V16.3199C9.25305 16.4102 9.71472 16.6023 10.1191 16.8014C10.3418 16.9109 10.5589 17.0281 10.7598 17.1373L10.7891 17.1539C10.9828 17.2592 11.1613 17.3556 11.3359 17.443C11.7063 17.6284 11.8562 18.0794 11.6709 18.4498C11.4855 18.8202 11.0345 18.9701 10.6641 18.7848C10.4657 18.6855 10.2667 18.5772 10.0791 18.4752L10.043 18.4557C9.84013 18.3454 9.64784 18.2414 9.45606 18.1471C9.06955 17.9569 8.72722 17.8275 8.40234 17.7828C7.65872 17.6807 7.05177 18.0352 6.11914 18.5797L6.0625 18.6119C5.44356 18.9733 4.92893 19.2738 4.50293 19.4674C4.07219 19.6631 3.60392 19.813 3.10938 19.7242C2.57481 19.6282 2.09595 19.339 1.75684 18.9156C1.44633 18.5279 1.34269 18.0482 1.2959 17.5699C1.24954 17.0959 1.24999 16.4896 1.25 15.7555V7.46445C1.24999 6.90957 1.24969 6.44068 1.28711 6.05234C1.32684 5.64027 1.41321 5.25989 1.61914 4.89609C1.82569 4.53132 2.10707 4.2646 2.43945 4.02304C2.75106 3.79661 3.14922 3.56381 3.61719 3.29062C3.62723 3.28476 3.63735 3.27894 3.64746 3.27304L4.90527 2.53867C5.55205 2.16105 6.08217 1.85153 6.54297 1.6373C7.02501 1.41324 7.48175 1.26809 7.98828 1.25156ZM7.17578 2.99765C6.78602 3.17883 6.3162 3.45162 5.63184 3.85117L4.40332 4.56796C3.89687 4.86364 3.56483 5.059 3.32129 5.23593C3.09187 5.40266 2.98989 5.52043 2.92481 5.63535C2.8591 5.75142 2.80846 5.90366 2.78027 6.19589C2.75059 6.50379 2.75 6.90011 2.75 7.49863V15.7164C2.75 16.4999 2.75071 17.0323 2.78906 17.4244C2.82785 17.8205 2.89603 17.9385 2.92774 17.9781C3.0441 18.1234 3.20391 18.2169 3.375 18.2477C3.41122 18.254 3.53316 18.261 3.88281 18.1021C4.23043 17.9442 4.67832 17.6838 5.3418 17.2965C5.39461 17.2656 5.44886 17.2332 5.50391 17.2008C5.99631 16.9105 6.57792 16.5673 7.25 16.3883V2.96543C7.22602 2.9761 7.20084 2.986 7.17578 2.99765ZM17.5088 15.5006C18.0611 15.5006 18.5088 15.9483 18.5088 16.5006C18.5086 17.0527 18.0609 17.5006 17.5088 17.5006H17.5C16.9478 17.5006 16.5002 17.0527 16.5 16.5006C16.5 15.9483 16.9477 15.5006 17.5 15.5006H17.5088Z" fill="#959698"/>
</svg>
