<svg width="24" height="24" viewBox="0 0 24 24" fill="none" xmlns="http://www.w3.org/2000/svg">
<path opacity="0.4" d="M4.02558 3.92037L5.25345 3.20351C6.59128 2.42246 7.26392 2.02976 8 2.00162L8.01238 2.00118C8.75332 1.97699 9.44884 2.32504 10.8399 3.02114L14.1715 4.68834C14.5766 4.89106 14.7846 4.99467 15 5.04761C15.2232 5.10248 15.4545 5.10294 15.9214 5.10294H18C19.8856 5.10294 20.8284 5.10294 21.4142 5.7055C22 6.30807 22 7.27787 22 9.21749V15.4853L21.9284 15.5534C21.8729 15.274 21.7839 14.9864 21.6571 14.6898C20.9555 13.0496 19.2713 12 17.5001 12C15.7289 12 14.0447 13.0496 13.3431 14.6898C12.7754 16.0171 12.9654 17.1637 13.5251 18.1902L11 18.1138C10.8135 18.0205 10.6253 17.9181 10.4349 17.8146C9.81874 17.4795 9.18005 17.1322 8.50487 17.0394C7.49945 16.9012 6.68141 17.3805 5.84342 17.8714C5.8023 17.8955 5.76112 17.9197 5.71987 17.9437C4.42151 18.7018 3.77226 19.0808 3.242 18.9856C2.88916 18.9222 2.57001 18.731 2.34226 18.4467C2 18.0193 2 17.2514 2 15.7157V7.49873C2 6.32993 2 5.74553 2.27164 5.26564C2.54329 4.78576 3.03739 4.49729 4.02558 3.92037Z" fill="#335289"/>
<path fill-rule="evenodd" clip-rule="evenodd" d="M17.5 11.2504C19.5546 11.2504 21.5205 12.4635 22.3467 14.3949C23.1187 16.1998 22.6911 17.7495 21.8408 19.0375C21.1493 20.0849 20.1377 21.0167 19.2656 21.8197C19.1124 21.9608 18.9634 22.0978 18.8213 22.2309C18.4631 22.5662 17.9887 22.7504 17.5 22.7504C17.0113 22.7504 16.5369 22.5662 16.1787 22.2309L16.1777 22.2299C16.0278 22.0887 15.8695 21.9426 15.707 21.7924C14.8436 20.9945 13.8456 20.071 13.1611 19.0365C12.3098 17.7497 11.8804 16.202 12.6533 14.3949C13.4795 12.4636 15.4454 11.2504 17.5 11.2504ZM17.5 12.7504C16.0122 12.7504 14.6093 13.6357 14.0322 14.9848C13.5077 16.2112 13.7611 17.2254 14.4121 18.2094C14.9871 19.0783 15.8244 19.8549 16.6895 20.6566C16.8607 20.8153 17.0335 20.9745 17.2051 21.1361C17.2805 21.2065 17.3859 21.2504 17.5 21.2504C17.6145 21.2504 17.7204 21.2068 17.7959 21.1361C17.9566 20.9856 18.1178 20.8361 18.2783 20.6879C19.1558 19.8776 20.0076 19.0909 20.5889 18.2104C21.2393 17.225 21.4917 16.2096 20.9678 14.9848C20.3907 13.6356 18.9878 12.7504 17.5 12.7504ZM7.98828 1.25137C8.49476 1.23491 8.95906 1.35016 9.4541 1.54239C9.92734 1.72619 10.4758 1.99973 11.1445 2.33438L14.5068 4.01798C14.7443 4.1368 14.8895 4.20618 14.9902 4.2504C14.9935 4.25036 14.9967 4.2504 15 4.2504C15.1285 4.2504 15.2478 4.28527 15.3535 4.3422C15.4629 4.34945 15.6273 4.35294 15.9209 4.35294H18.0527C18.9499 4.35291 19.7008 4.35258 20.2969 4.43497C20.9286 4.52233 21.4976 4.71546 21.9522 5.18302C22.4036 5.64754 22.5873 6.22327 22.6709 6.8627C22.7505 7.47169 22.75 8.24011 22.75 9.16641V10.0004C22.7498 10.4144 22.4141 10.7504 22 10.7504C21.5859 10.7504 21.2502 10.4144 21.25 10.0004V9.2172C21.25 8.22693 21.248 7.55729 21.1826 7.05704C21.1198 6.57643 21.0101 6.36587 20.876 6.22794C20.7447 6.09313 20.5488 5.9845 20.0918 5.9213C19.6105 5.85473 18.9646 5.85294 18 5.85294H15.8594C15.8223 5.85296 15.7858 5.85103 15.75 5.85098V9.5004C15.7498 9.91444 15.4141 10.2504 15 10.2504C14.5859 10.2504 14.2502 9.91444 14.25 9.5004V5.55899C14.1373 5.50621 14.0183 5.4506 13.8916 5.38712C13.8732 5.3779 13.8547 5.3682 13.8359 5.3588L10.5039 3.6918C9.79625 3.33768 9.31111 3.09518 8.91113 2.93985C8.85496 2.91804 8.80094 2.89985 8.75 2.88223V16.3197C9.25305 16.41 9.71472 16.6022 10.1191 16.8012C10.3418 16.9108 10.5589 17.0279 10.7598 17.1371L10.7891 17.1537C10.9828 17.259 11.1613 17.3554 11.3359 17.4428C11.7063 17.6282 11.8562 18.0792 11.6709 18.4496C11.4855 18.82 11.0345 18.9699 10.6641 18.7846C10.4657 18.6853 10.2667 18.5771 10.0791 18.475L10.043 18.4555C9.84013 18.3452 9.64784 18.2413 9.45606 18.1469C9.06955 17.9567 8.72722 17.8273 8.40235 17.7826C7.65872 17.6806 7.05177 18.035 6.11914 18.5795L6.0625 18.6117C5.44356 18.9731 4.92893 19.2736 4.50293 19.4672C4.07219 19.6629 3.60392 19.8129 3.10938 19.724C2.57481 19.628 2.09595 19.3389 1.75684 18.9154C1.44633 18.5277 1.34269 18.048 1.2959 17.5697C1.24954 17.0957 1.24999 16.4894 1.25 15.7553V7.46427C1.24999 6.90939 1.24969 6.4405 1.28711 6.05216C1.32684 5.64009 1.41321 5.25971 1.61914 4.89591C1.82569 4.53114 2.10707 4.26442 2.43945 4.02286C2.75106 3.79643 3.14922 3.56363 3.61719 3.29044C3.62723 3.28457 3.63735 3.27876 3.64746 3.27286L4.90527 2.53848C5.55205 2.16087 6.08217 1.85135 6.54297 1.63712C7.02501 1.41306 7.48175 1.26791 7.98828 1.25137ZM7.17578 2.99747C6.78602 3.17864 6.3162 3.45144 5.63184 3.85098L4.40332 4.56778C3.89687 4.86346 3.56483 5.05882 3.32129 5.23575C3.09187 5.40248 2.98989 5.52025 2.92481 5.63516C2.8591 5.75123 2.80846 5.90347 2.78027 6.19571C2.75059 6.50361 2.75 6.89993 2.75 7.49845V15.7162C2.75 16.4997 2.75071 17.0322 2.78906 17.4242C2.82785 17.8203 2.89603 17.9383 2.92774 17.9779C3.0441 18.1232 3.20391 18.2167 3.375 18.2475C3.41122 18.2539 3.53316 18.2608 3.88281 18.102C4.23043 17.944 4.67832 17.6837 5.3418 17.2963C5.39461 17.2655 5.44886 17.233 5.50391 17.2006C5.99631 16.9103 6.57792 16.5671 7.25 16.3881V2.96524C7.22602 2.97592 7.20084 2.98582 7.17578 2.99747ZM17.5088 15.5004C18.0611 15.5004 18.5088 15.9481 18.5088 16.5004C18.5086 17.0525 18.0609 17.5004 17.5088 17.5004H17.5C16.9478 17.5004 16.5002 17.0525 16.5 16.5004C16.5 15.9481 16.9477 15.5004 17.5 15.5004H17.5088Z" fill="#335289"/>
</svg>
