<svg width="18" height="20" viewBox="0 0 18 20" fill="none" xmlns="http://www.w3.org/2000/svg">
<path d="M10.7998 0.700195C11.4969 0.700195 12.0832 0.943056 12.5703 1.43262C13.0574 1.92229 13.2997 2.51218 13.2998 3.21387C13.2998 3.36769 13.2856 3.50863 13.2588 3.63672C13.2314 3.76758 13.19 3.90368 13.1338 4.04492L13.0254 4.31934H17.7998V9.34766H16V19.2998H2V9.34766H0.200195V4.31934H5.01855L4.85547 4.02246C4.79186 3.90736 4.75039 3.78683 4.73145 3.66016C4.71052 3.51994 4.7002 3.37071 4.7002 3.21387C4.70029 2.51218 4.9426 1.92229 5.42969 1.43262C5.91679 0.943056 6.50309 0.700195 7.2002 0.700195C7.51964 0.700219 7.81521 0.759075 8.08887 0.875977C8.36813 0.995289 8.62761 1.16058 8.86719 1.37305L9.00391 1.49512L9.1377 1.36914C9.376 1.14368 9.63248 0.976692 9.90723 0.866211C10.1818 0.755815 10.4788 0.700218 10.7998 0.700195ZM3.40039 17.8906H8.2998V9.34766H3.40039V17.8906ZM9.7002 17.8906H14.5996V9.34766H9.7002V17.8906ZM1.59961 7.93848H8.2998V5.72852H1.59961V7.93848ZM9.7002 7.93848H16.4004V5.72852H9.7002V7.93848ZM7.2002 2.10938C6.89449 2.10938 6.62877 2.21581 6.41699 2.42871C6.20539 2.64145 6.09971 2.90768 6.09961 3.21387C6.09961 3.52025 6.20527 3.78715 6.41699 4C6.62877 4.21288 6.89451 4.31934 7.2002 4.31934C7.50581 4.31929 7.77166 4.21286 7.9834 4C8.19501 3.78718 8.2998 3.52017 8.2998 3.21387C8.29971 2.90777 8.19487 2.64142 7.9834 2.42871C7.77166 2.21585 7.50581 2.10942 7.2002 2.10938ZM10.7998 2.10938C10.4942 2.10942 10.2283 2.21585 10.0166 2.42871C9.80513 2.64142 9.70029 2.90777 9.7002 3.21387C9.7002 3.52017 9.80499 3.78718 10.0166 4C10.2283 4.21286 10.4942 4.31929 10.7998 4.31934C11.1055 4.31934 11.3712 4.21288 11.583 4C11.7947 3.78715 11.9004 3.52025 11.9004 3.21387C11.9003 2.90768 11.7946 2.64145 11.583 2.42871C11.3712 2.21581 11.1055 2.10938 10.7998 2.10938Z" fill="white" stroke="white" stroke-width="0.4"/>
</svg>
