<svg width="25" height="24" viewBox="0 0 25 24" fill="none" xmlns="http://www.w3.org/2000/svg">
<path d="M12.4063 4.75C12.8377 4.75 13.1875 4.41421 13.1875 4V2C13.1875 1.58579 12.8377 1.25 12.4063 1.25C11.9748 1.25002 11.625 1.5858 11.625 2V4C11.625 4.4142 11.9748 4.74998 12.4063 4.75ZM9.17676 5.4502C9.43563 5.78155 9.92533 5.84809 10.2705 5.59961C10.6157 5.35108 10.6856 4.88118 10.4268 4.5498L8.86426 2.5498C8.60531 2.21869 8.11558 2.15194 7.77051 2.40039C7.42572 2.64898 7.35554 3.11897 7.61426 3.4502L9.17676 5.4502ZM14.542 5.59961C14.8872 5.84814 15.3769 5.78157 15.6357 5.4502L17.1982 3.4502C17.457 3.11894 17.3868 2.64898 17.042 2.40039C16.6969 2.15193 16.2072 2.21866 15.9482 2.5498L14.3857 4.5498C14.1269 4.88118 14.1968 5.35108 14.542 5.59961ZM12.4062 22.75C13.4211 22.75 14.3763 22.3566 15.8525 21.748C15.904 21.7268 15.956 21.7053 16.0088 21.6836L16.0742 21.6563C18.0459 20.8442 19.607 20.2019 20.668 19.5811C21.7196 18.9657 22.5623 18.2113 22.5625 17.0859L22.5625 7.74805C22.5625 7.04516 22.0485 6.60282 21.5869 6.30859C21.1226 6.01269 20.4548 5.70785 19.668 5.34863L19.6123 5.32324C19.2228 5.1454 18.7568 5.30398 18.5713 5.67773C18.386 6.05173 18.5509 6.49976 18.9404 6.67773C19.799 7.06976 20.363 7.32939 20.7227 7.55859C20.8612 7.64687 20.9355 7.70942 20.9736 7.74805C20.9355 7.78668 20.8611 7.84928 20.7227 7.9375C20.363 8.16665 19.7987 8.42646 18.9404 8.81836L15.8975 10.207C13.9532 11.0948 13.1989 11.4209 12.4063 11.4209C11.6136 11.4209 10.8593 11.0948 8.91504 10.207L5.87207 8.81836C5.01378 8.42646 4.44948 8.16665 4.08984 7.9375C3.95143 7.84928 3.87703 7.78668 3.83887 7.74805C3.87701 7.70942 3.95134 7.64687 4.08984 7.55859C4.44946 7.32939 5.01351 7.06976 5.87207 6.67773C6.26158 6.49976 6.42651 6.05173 6.24121 5.67773C6.05574 5.30398 5.58969 5.1454 5.2002 5.32324C5.18158 5.33174 5.16302 5.34019 5.14453 5.34863C4.35773 5.70784 3.68989 6.01269 3.22559 6.30859C2.76396 6.60282 2.25 7.04516 2.25 7.74805L2.25 17.0859C2.25021 18.2113 3.0929 18.9657 4.14453 19.5811C5.20555 20.2019 6.76663 20.8442 8.73828 21.6563L8.80371 21.6836C8.85645 21.7053 8.90851 21.7268 8.95996 21.748C10.4362 22.3566 11.3914 22.75 12.4062 22.75ZM11.625 21.1357C11.1278 21.002 10.4792 20.7414 9.41895 20.3047C7.36829 19.46 5.91197 18.858 4.95801 18.2998C3.98355 17.7296 3.81267 17.3645 3.8125 17.0859L3.8125 9.51758C4.19416 9.71323 4.64556 9.91868 5.14453 10.1465C5.16314 10.155 5.18145 10.1643 5.2002 10.1729L8.24316 11.5615C8.30068 11.5878 8.35791 11.614 8.41406 11.6396C9.74827 12.2493 10.7053 12.6871 11.625 12.8506L11.625 21.1357ZM13.1875 12.8506C14.1072 12.6871 15.0642 12.2493 16.3984 11.6396C16.4546 11.614 16.5118 11.5878 16.5693 11.5615L19.668 10.1465C20.167 9.91867 20.6183 9.71323 21 9.51758V17.0859C20.9998 17.3645 20.829 17.7296 19.8545 18.2998C18.9005 18.858 17.4442 19.46 15.3936 20.3047C14.3333 20.7414 13.6847 21.002 13.1875 21.1357L13.1875 12.8506ZM8.24316 14.9365C8.63266 15.1144 9.09871 14.9558 9.28418 14.582C9.46947 14.208 9.30451 13.76 8.91504 13.582L6.83789 12.6338C6.44825 12.4559 5.9822 12.6152 5.79688 12.9893C5.61158 13.3633 5.77736 13.8104 6.16699 13.9883L8.24316 14.9365Z" fill="#959698"/>
</svg>
