<svg width="25" height="24" viewBox="0 0 25 24" fill="none" xmlns="http://www.w3.org/2000/svg">
<path opacity="0.4" d="M21.875 17.4839C21.875 18.7742 19.8483 19.5413 15.7949 21.0755C14.1665 21.6918 13.3523 22 12.5 22C11.6477 22 10.8335 21.6918 9.20513 21.0755C5.15171 19.5413 3.125 18.7742 3.125 17.4839L3.125 8L12.5 12.0645L21.875 8L21.875 17.4839Z" fill="#335289"/>
<path fill-rule="evenodd" clip-rule="evenodd" d="M12.5 4.75C12.9315 4.75 13.2813 4.41421 13.2813 4V2C13.2813 1.58579 12.9315 1.25 12.5 1.25C12.0685 1.25002 11.7188 1.5858 11.7188 2V4C11.7188 4.4142 12.0685 4.74998 12.5 4.75ZM9.27051 5.4502C9.52938 5.78155 10.0191 5.84809 10.3643 5.59961C10.7094 5.35108 10.7794 4.88118 10.5205 4.5498L8.95801 2.5498C8.69906 2.21869 8.20933 2.15194 7.86426 2.40039C7.51947 2.64898 7.44929 3.11897 7.70801 3.4502L9.27051 5.4502ZM14.6357 5.59961C14.9809 5.84814 15.4706 5.78157 15.7295 5.4502L17.292 3.4502C17.5508 3.11894 17.4806 2.64898 17.1357 2.40039C16.7907 2.15193 16.3009 2.21866 16.042 2.5498L14.4795 4.5498C14.2206 4.88118 14.2906 5.35108 14.6357 5.59961ZM12.5 22.75C13.5149 22.75 14.47 22.3566 15.9463 21.748C15.9977 21.7268 16.0498 21.7053 16.1025 21.6836L16.168 21.6563C18.1396 20.8442 19.7007 20.2019 20.7617 19.5811C21.8134 18.9657 22.656 18.2113 22.6563 17.0859L22.6563 7.74805C22.6563 7.04516 22.1423 6.60282 21.6807 6.30859C21.2164 6.01269 20.5485 5.70785 19.7617 5.34863L19.7061 5.32324C19.3166 5.1454 18.8505 5.30398 18.665 5.67773C18.4797 6.05173 18.6447 6.49976 19.0342 6.67773C19.8927 7.06976 20.4568 7.32939 20.8164 7.55859C20.9549 7.64687 21.0292 7.70942 21.0674 7.74805C21.0292 7.78668 20.9548 7.84928 20.8164 7.9375C20.4568 8.16665 19.8925 8.42646 19.0342 8.81836L15.9912 10.207C14.047 11.0948 13.2926 11.4209 12.5 11.4209C11.7074 11.4209 10.953 11.0948 9.00879 10.207L5.96582 8.81836C5.10753 8.42646 4.54323 8.16665 4.18359 7.9375C4.04518 7.84928 3.97078 7.78668 3.93262 7.74805C3.97076 7.70942 4.04509 7.64687 4.18359 7.55859C4.54321 7.32939 5.10726 7.06976 5.96582 6.67773C6.35533 6.49976 6.52026 6.05173 6.33496 5.67773C6.14949 5.30398 5.68344 5.1454 5.29395 5.32324C5.27533 5.33174 5.25677 5.34019 5.23828 5.34863C4.45148 5.70784 3.78364 6.01269 3.31934 6.30859C2.85771 6.60282 2.34375 7.04516 2.34375 7.74805L2.34375 17.0859C2.34396 18.2113 3.18665 18.9657 4.23828 19.5811C5.2993 20.2019 6.86038 20.8442 8.83203 21.6563L8.89746 21.6836C8.9502 21.7053 9.00226 21.7268 9.05371 21.748C10.53 22.3566 11.4851 22.75 12.5 22.75ZM11.7188 21.1357C11.2216 21.002 10.573 20.7414 9.5127 20.3047C7.46204 19.46 6.00572 18.858 5.05176 18.2998C4.0773 17.7296 3.90642 17.3645 3.90625 17.0859L3.90625 9.51758C4.28791 9.71323 4.73931 9.91868 5.23828 10.1465C5.25689 10.155 5.2752 10.1643 5.29395 10.1729L8.33691 11.5615C8.39443 11.5878 8.45166 11.614 8.50781 11.6396C9.84202 12.2493 10.799 12.6871 11.7188 12.8506L11.7188 21.1357ZM13.2813 12.8506C14.201 12.6871 15.158 12.2493 16.4922 11.6396C16.5483 11.614 16.6056 11.5878 16.6631 11.5615L19.7617 10.1465C20.2607 9.91867 20.7121 9.71323 21.0938 9.51758V17.0859C21.0936 17.3645 20.9227 17.7296 19.9482 18.2998C18.9943 18.858 17.538 19.46 15.4873 20.3047C14.427 20.7414 13.7784 21.002 13.2812 21.1357L13.2813 12.8506ZM8.33691 14.9365C8.72641 15.1144 9.19246 14.9558 9.37793 14.582C9.56322 14.208 9.39826 13.76 9.00879 13.582L6.93164 12.6338C6.542 12.4559 6.07595 12.6152 5.89063 12.9893C5.70533 13.3633 5.87111 13.8104 6.26074 13.9883L8.33691 14.9365Z" fill="#335289"/>
</svg>
